<svg xmlns="http://www.w3.org/2000/svg" viewBox="0 0 600 600">
  <defs>
    <linearGradient id="g" x1="0" x2="1">
      <stop offset="0" stop-color="#5b21b6"/>
      <stop offset="1" stop-color="#7c3aed"/>
    </linearGradient>
  </defs>
  <rect width="100%" height="100%" rx="120" fill="#000" />
  <g transform="translate(300,300)">
    <circle r="240" fill="#07122b" />
    <g transform="translate(0,-20)">
      <g transform="scale(0.9)">
        <path d="M0-140 C30-140 90-120 120-80 C150-40 150 40 120 80 C90 120 30 140 0 140 C-30 140 -90 120 -120 80 C-150 40 -150 -40 -120 -80 C-90 -120 -30 -140 0 -140 Z" fill="url(#g)"/>
        <ellipse cx="0" cy="20" rx="36" ry="60" fill="#ffb86b" opacity="0.9" />
        <circle cx="20" cy="-20" r="22" fill="#fff" opacity="0.9" />
        <rect x="-24" y="120" width="48" height="72" rx="12" fill="#ff6b6b" transform="rotate(10)" />
      </g>
    </g>
  </g>
</svg>
